<svg width="41" height="41" viewBox="0 0 41 41" fill="none" xmlns="http://www.w3.org/2000/svg">
<path fill-rule="evenodd" clip-rule="evenodd" d="M0.204224 7.25149C0.204224 3.60641 3.15914 0.651489 6.80422 0.651489H33.6042C37.2493 0.651489 40.2042 3.60641 40.2042 7.25149V34.0515C40.2042 37.6966 37.2493 40.6515 33.6042 40.6515H6.80422C3.15914 40.6515 0.204224 37.6966 0.204224 34.0515V7.25149ZM18.9817 14.1694L18.8192 20.2149C18.7974 21.0244 18.4575 21.7927 17.873 22.3533L7.61318 32.1925L7.73855 26.2006C7.75562 25.3846 8.09615 24.6088 8.68522 24.0439L18.9817 14.1694ZM18.9333 10.597L19.0958 4.55157L8.79934 14.426C8.21027 14.9909 7.86974 15.7667 7.85267 16.5827L7.7273 22.5747L17.9871 12.7354C18.5716 12.1749 18.9116 11.4066 18.9333 10.597ZM27.2885 22.8314L21.2416 22.7409C20.4318 22.7288 19.65 23.0363 19.0655 23.5968L8.80568 33.4361L14.7976 33.5615C15.6136 33.5785 16.403 33.2708 16.9921 32.7058L27.2885 22.8314ZM30.8564 23.0294L36.9034 23.1199L26.6069 32.9943C26.0178 33.5593 25.2285 33.867 24.4125 33.85L18.4205 33.7246L28.6803 23.8853C29.2648 23.3248 30.0467 23.0173 30.8564 23.0294Z" fill="#FFC425"/>
</svg>
